# xmcd CD database file
#
# Track frame offsets:
#	150
#	23131
#	40441
#	90623
#	117670
#	144544
#	182846
#	191612
#	226109
#
# Disc length: 3438 seconds
#
# Revision: 0
# Processed by: cddbd v1.5.2PL0 Copyright (c) Steve Scherf et al.
# Submitted via: CDex 1.70beta2
#
DISCID=780d6c09
DTITLE=Way Out Northwest - The White Spot
DYEAR=2012
DGENRE=Jazz
TTITLE0=Graminea
TTITLE1=Mespili
TTITLE2=Impressum
TTITLE3=Hymence 1
TTITLE4=Schoepfiae
TTITLE5=Earlyanum
TTITLE6=Hymence 2
TTITLE7=Mali
TTITLE8=Saponariae
EXTD=YEAR: 2012
EXTT0=
EXTT1=
EXTT2=
EXTT3=
EXTT4=
EXTT5=
EXTT6=
EXTT7=
EXTT8=
PLAYORDER=
